<svg viewBox="0 0 4596 525" xmlns="http://www.w3.org/2000/svg">
  <path d="M4408.5, 484.633C4370.17, 484.633 4338.04, 476.175 4312.17, 459.242C4286.25, 442.329 4271.08, 420.204 4266.58, 392.879L4284.96, 387.992C4288.21, 411.642 4300.96, 430.6 4323.17, 444.867C4345.38, 459.146 4373.83, 466.283 4408.5, 466.283C4433.79, 466.283 4456, 462.408 4475.17, 454.658C4494.33, 446.913 4509.21, 436.104 4519.83, 422.237C4530.42, 408.388 4535.75, 392.479 4535.75, 374.529C4535.75, 349.662 4526.33, 329.979 4507.58, 315.504C4488.83, 301.033 4462.92, 289.304 4429.92, 280.333L4392.58, 269.933C4353.04, 258.929 4322.66, 245.067 4301.46, 228.346C4280.25, 211.629 4269.67, 189.408 4269.67, 161.667C4269.67, 140.871 4275.67, 122.521 4287.71, 106.617C4299.71, 90.721 4316.33, 78.171 4337.54, 69C4358.75, 59.821 4382.58, 55.238 4409.12, 55.238C4434, 55.238 4456.29, 59.013 4476.08, 66.554C4495.88, 74.108 4512.08, 84.813 4524.71, 98.663C4537.33, 112.533 4545.08, 128.638 4547.96, 146.988L4529.62, 151.879C4526.75, 128.238 4514.21, 109.279 4492, 95C4469.75, 80.729 4442.12, 73.588 4409.12, 73.588C4385.88, 73.588 4365.08, 77.363 4346.7, 84.908C4328.38, 92.45 4314, 102.858 4303.58, 116.1C4293.21, 129.35 4288, 144.546 4288, 161.667C4288, 184.917 4297.25, 203.258 4315.83, 216.721C4334.38, 230.179 4361.42, 242.004 4396.88, 252.192L4433.58, 262.592C4471.5, 273.208 4501.08, 287.162 4522.25, 304.496C4543.46, 321.829 4554.08, 345.175 4554.08, 374.529C4554.08, 396.154 4547.96, 415.208 4535.75, 431.721C4523.5, 448.233 4506.46, 461.183 4484.67, 470.563C4462.83, 479.95 4437.46, 484.633 4408.5, 484.633ZM4408.5, 444.258C4379.54, 444.258 4355.71, 438.654 4336.92, 427.442C4318.17, 416.225 4307.96, 401.242 4306.33, 382.483L4324.08, 377.592C4324.08, 391.454 4331.92, 402.975 4347.62, 412.146C4363.33, 421.321 4383.62, 425.908 4408.5, 425.908C4434.21, 425.908 4455.08, 421.229 4471.21, 411.842C4487.29, 402.471 4495.38, 390.438 4495.38, 375.758C4495.38, 361.896 4488.62, 350.671 4475.17, 342.108C4461.71, 333.55 4443.38, 326.004 4420.12, 319.479L4382.21, 308.471C4331.62, 293.792 4293.5, 275.242 4267.83, 252.813C4242.12, 230.387 4229.29, 199.596 4229.29, 160.45C4229.29, 132.308 4237.12, 107.338 4252.83, 85.517C4268.5, 63.704 4289.91, 46.475 4317.04, 33.833C4344.17, 21.196 4374.88, 14.871 4409.12, 14.871C4440.08, 14.871 4468.12, 19.867 4493.21, 29.854C4518.29, 39.854 4539.08, 54.017 4555.58, 72.367C4572.12, 90.721 4582.62, 112.125 4587.12, 136.592L4569.38, 141.479C4565.71, 119.875 4556.54, 100.917 4541.83, 84.604C4527.17, 68.296 4508.42, 55.646 4485.58, 46.675C4462.71, 37.713 4437.25, 33.213 4409.12, 33.213C4378.12, 33.213 4350.5, 38.825 4326.21, 50.042C4301.96, 61.258 4282.79, 76.45 4268.75, 95.608C4254.67, 114.779 4247.62, 136.8 4247.62, 161.667C4247.62, 195.113 4259.33, 221.921 4282.79, 242.1C4306.25, 262.288 4341, 278.704 4387.08, 291.338L4425, 301.746C4453.17, 309.492 4474.96, 318.871 4490.46, 329.875C4505.96, 340.892 4513.71, 355.779 4513.71, 374.529C4513.71, 395.325 4504.12, 412.146 4484.96, 424.996C4465.79, 437.837 4440.29, 444.258 4408.5, 444.258ZM4408.5, 524.996C4376.71, 524.996 4348.04, 520 4322.58, 510.013C4297.08, 500.025 4276.08, 485.954 4259.54, 467.812C4243.04, 449.671 4232.33, 428.154 4227.46, 403.279L4245.17, 398.388C4249.25, 420.404 4258.54, 439.475 4273, 455.579C4287.5, 471.692 4306.33, 484.233 4329.58, 493.192C4352.83, 502.163 4379.12, 506.654 4408.5, 506.654C4441.92, 506.654 4471.21, 501.05 4496.25, 489.825C4521.38, 478.621 4540.92, 463.121 4555, 443.346C4569.08, 423.567 4576.08, 400.633 4576.08, 374.529C4576.08, 339.875 4564.04, 312.146 4540, 291.338C4515.96, 270.546 4482.08, 253.829 4438.46, 241.188L4402.38, 230.787C4372.62, 222.225 4349.79, 212.846 4333.88, 202.65C4317.96, 192.463 4310.04, 178.8 4310.04, 161.667C4310.04, 141.692 4319.42, 125.688 4338.17, 113.654C4356.92, 101.629 4380.58, 95.608 4409.12, 95.608C4436.83, 95.608 4459.67, 101.325 4477.62, 112.733C4495.54, 124.158 4505.75, 139.038 4508.21, 157.388L4490.46, 162.275C4489.62, 148.017 4481.79, 136.392 4466.92, 127.413C4452.04, 118.45 4432.75, 113.958 4409.12, 113.958C4386.67, 113.958 4367.62, 118.242 4351.91, 126.804C4336.2, 135.362 4328.38, 146.587 4328.38, 160.45C4328.38, 173.092 4335.62, 183.292 4350.08, 191.025C4364.54, 198.779 4383.62, 206.121 4407.29, 213.046L4442.12, 223.446C4491.46, 238.125 4529.21, 257.196 4555.29, 280.638C4581.38, 304.096 4594.46, 335.792 4594.46, 375.758C4594.46, 404.713 4586.58, 430.496 4570.92, 453.125C4555.21, 475.758 4533.38, 493.404 4505.46, 506.037C4477.5, 518.671 4445.21, 524.996 4408.5, 524.996ZM4161.48, 515.825L4075.24, 326.821C4078.08, 326.421 4081.05, 325.9 4084.1, 325.292C4087.17, 324.683 4090.12, 323.758 4092.98, 322.542L4181.67, 515.825L4161.48, 515.825ZM4116.83, 515.825L4031.81, 331.104C4035.07, 331.104 4038.43, 331.008 4041.9, 330.8C4045.36, 330.6 4048.72, 330.288 4052, 329.875L4137.02, 515.825L4116.83, 515.825ZM4072.18, 515.825L3987.77, 331.713L4007.95, 331.713L4092.36, 515.825L4072.18, 515.825ZM3925.09, 229.563L3925.09, 211.213L4042.82, 211.213C4055.05, 211.213 4065.55, 207.654 4074.33, 200.508C4083.09, 193.383 4087.47, 182.262 4087.47, 167.175C4087.47, 151.679 4083.09, 140.471 4074.33, 133.529C4065.55, 126.604 4055.05, 123.129 4042.82, 123.129L3925.09, 123.129L3925.09, 104.779L4042.82, 104.779C4060.35, 104.779 4075.24, 110.087 4087.47, 120.687C4099.71, 131.292 4105.82, 146.787 4105.82, 167.175C4105.82, 187.571 4099.71, 203.058 4087.47, 213.667C4075.24, 224.271 4060.35, 229.563 4042.82, 229.563L3925.09, 229.563ZM3925.09, 269.933L3925.09, 251.583L4042.82, 251.583C4066.47, 251.583 4086.56, 244.146 4103.07, 229.258C4119.59, 214.379 4127.85, 193.688 4127.85, 167.175C4127.85, 140.671 4119.59, 119.979 4103.07, 105.092C4086.56, 90.204 4066.47, 82.767 4042.82, 82.767L3925.09, 82.767L3925.09, 64.417L4042.82, 64.417C4061.98, 64.417 4079.31, 68.6 4094.82, 76.954C4110.3, 85.317 4122.74, 97.142 4132.12, 112.429C4141.5, 127.725 4146.2, 145.979 4146.2, 167.175C4146.2, 188.379 4141.5, 206.625 4132.12, 221.921C4122.74, 237.208 4110.3, 249.042 4094.82, 257.396C4079.31, 265.758 4061.98, 269.933 4042.82, 269.933L3925.09, 269.933ZM3925.09, 310.308L3925.09, 291.958L4042.82, 291.958C4066.07, 291.958 4087.17, 286.858 4106.13, 276.662C4125.09, 266.471 4140.18, 251.992 4151.39, 233.233C4162.61, 214.483 4168.21, 192.463 4168.21, 167.175C4168.21, 141.9 4162.61, 119.875 4151.39, 101.117C4140.18, 82.367 4125.09, 67.879 4106.13, 57.679C4087.17, 47.5 4066.07, 42.392 4042.82, 42.392L3925.09, 42.392L3925.09, 24.042L4042.82, 24.042C4069.32, 24.042 4093.48, 30.062 4115.31, 42.087C4137.11, 54.121 4154.45, 70.837 4167.29, 92.242C4180.12, 113.654 4186.54, 138.638 4186.54, 167.175C4186.54, 195.725 4180.12, 220.696 4167.29, 242.1C4154.45, 263.513 4137.11, 280.237 4115.31, 292.263C4093.48, 304.296 4069.32, 310.308 4042.82, 310.308L3925.09, 310.308ZM3884.72, 515.825L3884.72, 24.042L3903.07, 24.042L3903.07, 515.825L3884.72, 515.825ZM3844.35, 515.825L3844.35, 24.042L3862.7, 24.042L3862.7, 515.825L3844.35, 515.825ZM3803.98, 515.825L3803.98, 24.042L3822.33, 24.042L3822.33, 515.825L3803.98, 515.825ZM3547.29, 515.825L3547.29, 497.475L3747.52, 497.475L3747.52, 515.825L3547.29, 515.825ZM3547.29, 475.454L3547.29, 457.1L3747.52, 457.1L3747.52, 475.454L3547.29, 475.454ZM3547.29, 435.087L3547.29, 416.738L3747.52, 416.738L3747.52, 435.087L3547.29, 435.087ZM3547.29, 319.479L3547.29, 301.129L3712.65, 301.129L3712.65, 319.479L3547.29, 319.479ZM3547.29, 279.104L3547.29, 260.763L3712.65, 260.763L3712.65, 279.104L3547.29, 279.104ZM3547.29, 238.742L3547.29, 220.392L3712.65, 220.392L3712.65, 238.742L3547.29, 238.742ZM3547.29, 123.129L3547.29, 104.779L3747.52, 104.779L3747.52, 123.129L3547.29, 123.129ZM3547.29, 82.767L3547.29, 64.417L3747.52, 64.417L3747.52, 82.767L3547.29, 82.767ZM3547.29, 42.392L3547.29, 24.042L3747.52, 24.042L3747.52, 42.392L3547.29, 42.392ZM3506.92, 515.825L3506.92, 24.042L3525.27, 24.042L3525.27, 515.825L3506.92, 515.825ZM3466.55, 515.825L3466.55, 24.042L3484.9, 24.042L3484.9, 515.825L3466.55, 515.825ZM3426.18, 515.825L3426.18, 24.042L3444.53, 24.042L3444.53, 515.825L3426.18, 515.825ZM3224.68, 142.679L3224.68, 515.825L3243.03, 515.825L3243.03, 142.679L3224.68, 142.679ZM3184.31, 142.679L3184.31, 515.825L3202.67, 515.825L3202.67, 142.679L3184.31, 142.679ZM3143.95, 142.679L3143.95, 515.825L3162.3, 515.825L3162.3, 142.679L3143.95, 142.679ZM3073.39, 104.812C3075.8, 110.783 3077.67, 116.929 3079, 123.167L3374.18, 123.167L3374.18, 104.812L3073.39, 104.812ZM3047.28, 64.45C3052.72, 70.154 3057.62, 76.213 3061.9, 82.804L3374.18, 82.804L3374.18, 64.45L3047.28, 64.45ZM2991.69, 24C3003.33, 25.979 3015.03, 33.8 3028.84, 42.354L3374.18, 42.354L3374.18, 24L2991.69, 24ZM2980.96, 280.604C2954.86, 257.171 2917.17, 238.104 2867.81, 223.404L2832.97, 213.067C2809.27, 206.117 2790.2, 198.812 2775.77, 191.063C2761.33, 183.308 2754.03, 173.063 2754.03, 160.413C2754.03, 146.6 2761.87, 135.375 2777.64, 126.821C2793.32, 118.267 2812.39, 113.992 2834.84, 113.992C2858.45, 113.992 2877.7, 118.446 2892.58, 127.446C2907.46, 136.354 2915.3, 148.025 2916.19, 162.283L2933.92, 157.379C2931.43, 139.025 2921.27, 124.146 2903.27, 112.742C2885.36, 101.337 2862.55, 95.638 2834.84, 95.638C2806.24, 95.638 2782.63, 101.604 2763.83, 113.633C2745.12, 125.662 2735.68, 141.7 2735.68, 161.658C2735.68, 178.767 2743.7, 192.487 2759.55, 202.642C2775.5, 212.892 2798.31, 222.246 2828.07, 230.8L2864.15, 241.225C2907.81, 253.787 2941.67, 270.538 2965.73, 291.296C2989.78, 312.146 3001.81, 339.854 3001.81, 374.517C3001.81, 400.621 2994.78, 423.608 2980.7, 443.388C2966.62, 463.167 2947.02, 478.579 2921.98, 489.808C2896.85, 501.033 2867.63, 506.646 2834.22, 506.646C2804.81, 506.646 2778.53, 502.192 2755.28, 493.192C2754.21, 492.746 2753.14, 492.392 2752.16, 491.946L2760.62, 514.308C2782.9, 521.437 2807.49, 525 2834.22, 525C2870.93, 525 2903.18, 518.675 2931.16, 506.025C2959.05, 493.371 2980.88, 475.729 2996.55, 453.1C3012.24, 430.467 3020.17, 404.721 3020.17, 375.762C3020.17, 335.758 3007.07, 304.129 2980.96, 280.604ZM2981.32, 72.379C2964.75, 54.025 2943.99, 39.858 2918.86, 29.879C2893.83, 19.9 2865.76, 14.913 2834.84, 14.913C2800.54, 14.913 2769.89, 21.238 2742.71, 33.8C2715.62, 46.454 2694.24, 63.737 2678.56, 85.479C2662.79, 107.308 2654.95, 132.346 2654.95, 160.413C2654.95, 199.612 2667.78, 230.354 2693.53, 252.808C2719.19, 275.258 2757.33, 293.792 2807.85, 308.492L2845.8, 319.454C2869.05, 326.046 2887.41, 333.529 2900.86, 342.083C2914.32, 350.637 2921, 361.863 2921, 375.762C2921, 390.462 2912.98, 402.492 2896.85, 411.846C2880.72, 421.2 2859.88, 425.925 2834.22, 425.925C2809.27, 425.925 2791.07, 419.95 2773.85, 414.15C2732.85, 400.337 2707.21, 376.45 2707.21, 376.45L2722.05, 410.696C2722.05, 410.696 2766.08, 444.279 2834.22, 444.279C2866.03, 444.279 2891.51, 437.862 2910.67, 425.033C2929.82, 412.117 2939.35, 395.362 2939.35, 374.517C2939.35, 355.804 2931.6, 340.925 2916.19, 329.875C2900.68, 318.829 2878.85, 309.475 2850.7, 301.721L2812.75, 291.296C2766.68, 278.733 2731.93, 262.25 2708.5, 242.113C2685.07, 221.887 2673.3, 195.071 2673.3, 161.658C2673.3, 136.8 2680.34, 114.792 2694.42, 95.638C2708.5, 76.479 2727.65, 61.242 2751.89, 50.017C2776.21, 38.792 2803.84, 33.179 2834.84, 33.179C2862.91, 33.179 2888.39, 37.721 2911.29, 46.633C2934.1, 55.629 2952.9, 68.283 2967.51, 84.588C2982.21, 100.892 2991.39, 119.871 2995.04, 141.521L3012.77, 136.621C3008.32, 112.121 2997.8, 90.738 2981.32, 72.379ZM2948, 304.483C2926.79, 287.2 2897.21, 273.208 2859.25, 262.608L2822.55, 252.183C2787.08, 242.025 2760.09, 230.175 2741.55, 216.721C2722.93, 203.267 2713.67, 184.912 2713.67, 161.658C2713.67, 144.55 2718.93, 129.317 2729.26, 116.129C2739.68, 102.854 2754.03, 92.429 2772.38, 84.946C2790.74, 77.371 2811.59, 73.629 2834.84, 73.629C2867.81, 73.629 2895.43, 80.758 2917.7, 95.013C2939.89, 109.267 2952.45, 128.246 2955.3, 151.858L2973.66, 146.958C2970.81, 128.604 2963.05, 112.567 2950.4, 98.667C2937.75, 84.854 2921.53, 74.075 2901.75, 66.588C2881.97, 59.017 2859.7, 55.275 2834.84, 55.275C2808.29, 55.275 2784.41, 59.817 2763.2, 68.996C2742, 78.171 2725.43, 90.738 2713.4, 106.596C2701.37, 122.546 2695.31, 140.9 2695.31, 161.658C2695.31, 189.367 2705.92, 211.642 2727.12, 228.304C2748.33, 245.054 2778.71, 258.954 2818.27, 269.912L2855.6, 280.337C2888.66, 289.338 2914.5, 301.008 2933.3, 315.533C2952, 329.967 2961.45, 349.658 2961.45, 374.517C2961.45, 392.512 2956.1, 408.371 2945.5, 422.271C2934.9, 436.079 2920.02, 446.95 2900.86, 454.613C2881.71, 462.367 2859.43, 466.283 2834.22, 466.283C2799.56, 466.283 2771.05, 459.158 2748.86, 444.9C2740.48, 439.554 2731.64, 435.504 2725.94, 428.825L2740.58, 461.029C2765.97, 476.708 2797.15, 484.637 2834.22, 484.637C2863.18, 484.637 2888.48, 479.917 2910.31, 470.563C2932.14, 461.208 2949.15, 448.2 2961.45, 431.717C2973.66, 415.233 2979.8, 396.167 2979.8, 374.517C2979.8, 345.2 2969.11, 321.858 2948, 304.483ZM2409.56, 24L2290.7, 352.421L2290.7, 406.146L2428.54, 24L2409.56, 24ZM2451.8, 24L2290.7, 470.65L2290.7, 515.825L2293.91, 515.825L2471.93, 24L2451.8, 24ZM2495.19, 24L2317.17, 515.825L2336.77, 515.825L2514.79, 24L2495.19, 24ZM2533.77, 416.125L2394.24, 416.125L2387.55, 434.479L2540.45, 434.479L2533.77, 416.125ZM2519.06, 375.762L2408.94, 375.762L2402.26, 394.117L2525.75, 394.117L2519.06, 375.762ZM2504.36, 334.779L2423.64, 334.779L2416.87, 353.133L2511.13, 353.133L2504.36, 334.779ZM2483.6, 166.558L2473.8, 194.092L2589.99, 515.825L2609.59, 515.825L2483.6, 166.558ZM2504.36, 106.596L2495.19, 134.75L2632.85, 515.825L2652.36, 515.825L2504.36, 106.596ZM2525.75, 47.254L2516.04, 74.787L2675.61, 515.825L2695.21, 515.825L2525.75, 47.254ZM2202.34, 517.525L2202.34, 11.15L2221.23, 11.15L2221.23, 517.525L2202.34, 517.525ZM2160.76, 517.525L2160.76, 11.15L2179.65, 11.15L2179.65, 517.525L2160.76, 517.525ZM2119.19, 517.525L2119.19, 11.15L2138.1, 11.15L2138.1, 517.525L2119.19, 517.525ZM2041.1, 297.721L2029.76, 281.342L2096.53, 186.242L2096.53, 218.987L2041.1, 297.721ZM2015.9, 261.817L2004.57, 244.812L2096.53, 113.808L2096.53, 146.563L2015.9, 261.817ZM1990.09, 225.296L1978.75, 208.283L2096.53, 37.608L2096.53, 70.983L1990.09, 225.296ZM1964.88, 407.308L1836.4, 224.658L1836.4, 191.279L1976.23, 390.933L1964.88, 407.308ZM1990.09, 371.404L1836.4, 152.233L1836.4, 118.854L2001.42, 354.404L1990.09, 371.404ZM2015.28, 334.25L1836.4, 78.542L1836.4, 46.421L2027.24, 317.871L2015.28, 334.25ZM1794.85, 517.525L1794.85, 11.15L1813.74, 11.15L1813.74, 517.525L1794.85, 517.525ZM1753.27, 517.525L1753.27, 11.15L1772.16, 11.15L1772.16, 517.525L1753.27, 517.525ZM1711.7, 517.525L1711.7, 11.15L1730.6, 11.15L1730.6, 517.525L1711.7, 517.525ZM1595.28, 11.15L1489.91, 211.708L1425.79, 334.317L1425.79, 516.85L1539.22, 516.85L1539.22, 322.929L1711.7, 11.15L1595.28, 11.15ZM1380.79, 11.15L1252.54, 11.15L1381.45, 243.108L1441.82, 127.458L1380.79, 11.15ZM967.775, 516.833L857.958, 516.833L1041.48, 11.196L1177.12, 11.196L1360.64, 516.833L1038.41, 516.579L1072.01, 411.904L1204.74, 411.596L1110.21, 132.817L967.775, 516.833ZM484.838, 516.833L484.838, 11.196L599.092, 11.196L599.092, 411.433L806.942, 411.433L758.425, 516.833L484.838, 516.833ZM294.842, 154.192C294.842, 135.521 287.467, 120.908 272.729, 110.333C257.979, 99.775 237.583, 94.488 211.542, 94.488C184.517, 94.488 163.508, 98.796 148.521, 107.383C133.533, 115.992 126.042, 127.413 126.042, 141.658C126.042, 153.954 130.704, 164.146 140.046, 172.246C149.375, 180.354 161.292, 186.879 175.792, 191.783C190.283, 196.704 210.075, 202.1 235.133, 207.996C271.983, 216.846 302.321, 225.942 326.162, 235.271C349.992, 244.608 370.387, 259.108 387.337, 278.758C404.287, 298.421 412.763, 324.712 412.763, 357.625C412.763, 415.117 394.213, 457.258 357.117, 484.033C320.008, 510.821 281.558, 524.204 216.704, 524.204C157.729, 524.204 96.438, 511.304 57.858, 485.508C19.279, 459.708 0, 420.529 0, 367.946L0.742, 351.729L108.354, 351.729L107.612, 363.525C107.612, 385.15 115.721, 402.221 131.938, 414.75C148.154, 427.279 171.008, 433.542 200.488, 433.542C234.875, 433.542 259.567, 428.142 274.562, 417.333C289.55, 406.529 297.042, 392.763 297.042, 376.054C297.042, 363.283 292.496, 352.837 283.404, 344.729C274.317, 336.621 262.775, 330.237 248.771, 325.562C234.767, 320.9 215.233, 315.613 190.175, 309.713C152.817, 300.383 122.358, 291.046 98.767, 281.708C75.188, 272.379 54.792, 257.379 37.592, 236.742C20.383, 216.104 11.8, 188.35 11.8, 153.454C11.8, 121.021 20.642, 93.513 38.325, 70.904C56.025, 48.304 79.721, 31.467 109.458, 20.413C139.179, 9.354 172.479, 3.825 209.329, 3.825C265.837, 3.825 312.029, 16.242 347.908, 41.05C383.775, 65.867 401.708, 102.85 401.708, 151.983L401.708, 160.825L294.842, 160.825L294.842, 154.192Z" fill="#eaeaea"/>
</svg>
